<?xml version="1.0" encoding="utf-8" ?>
<svg baseProfile="tiny" height="100%" version="1.2" width="100%" xmlns="http://www.w3.org/2000/svg" xmlns:ev="http://www.w3.org/2001/xml-events" xmlns:xlink="http://www.w3.org/1999/xlink"><defs /><polygon fill="gold" points="511,130 511,131 509,133 509,135 508,136 508,137 507,138 507,139 506,140 506,141 505,142 505,144 503,146 503,148 502,149 502,150 501,151 501,152 500,153 500,155 499,156 499,157 498,158 498,159 497,160 497,161 496,162 496,164 495,165 495,166 494,167 494,169 493,170 493,171 492,172 492,173 491,174 491,175 490,176 490,177 489,178 489,180 488,181 488,182 487,183 487,184 486,185 486,187 485,188 485,189 484,190 484,191 483,192 483,193 482,194 482,196 481,197 481,198 480,199 480,201 479,202 479,203 478,204 478,205 477,206 477,207 476,208 476,209 475,210 475,211 474,212 474,214 473,215 473,216 472,217 472,218 471,219 471,220 470,221 470,223 469,224 469,225 468,226 468,227 467,228 467,229 466,230 466,231 465,232 465,234 464,235 464,236 463,237 463,238 462,239 462,241 461,242 461,243 460,244 460,245 459,246 459,247 458,248 458,249 457,250 457,252 456,253 456,254 455,255 455,256 454,257 454,258 453,259 453,260 452,261 452,263 451,264 451,265 450,266 450,267 449,268 449,269 448,270 448,271 447,272 447,274 446,275 446,276 445,277 445,278 444,279 444,280 443,281 443,282 442,283 442,285 441,286 441,287 440,288 440,289 439,290 439,291 438,292 438,294 437,295 437,296 436,297 436,298 435,299 435,300 434,301 434,303 433,304 433,305 432,306 432,307 431,308 431,309 430,310 430,312 429,313 429,314 428,315 428,316 427,317 427,319 425,321 425,323 424,324 424,325 423,326 423,328 422,329 422,330 421,331 421,332 420,333 420,335 418,337 418,339 417,340 417,341 416,342 416,343 415,344 415,346 414,347 414,348 413,349 413,350 412,351 412,352 411,353 411,355 410,356 410,357 409,358 409,359 408,360 408,361 407,362 407,363 406,364 406,365 405,366 405,368 404,369 404,370 403,371 403,372 402,373 402,374 401,375 401,376 400,377 400,379 399,380 399,381 398,382 398,384 397,385 397,386 396,387 396,388 395,389 395,390 394,391 394,392 393,393 393,394 392,395 392,396 391,397 391,398 390,399 390,401 389,402 389,403 388,404 388,405 387,406 387,407 386,408 386,410 385,411 385,412 384,413 384,414 383,415 383,416 382,417 382,418 381,419 381,421 380,422 380,423 379,424 379,425 378,426 378,427 377,428 377,429 376,430 376,431 375,432 375,433 374,434 374,435 373,436 373,437 372,438 372,439 371,440 371,441 370,442 370,444 369,445 369,446 368,447 368,448 367,449 367,451 366,452 366,453 365,454 365,455 364,456 364,457 363,458 363,459 362,460 362,461 361,462 361,463 360,464 360,465 359,466 359,468 358,469 358,470 357,471 357,472 356,473 356,474 355,475 355,477 354,478 354,479 352,481 352,483 351,484 351,485 350,486 350,487 349,488 349,489 348,490 348,492 347,493 347,494 346,495 346,496 345,497 345,498 344,499 344,500 343,501 343,502 342,503 342,505 341,506 341,507 340,508 340,509 339,510 339,511 338,512 338,513 337,514 337,516 336,517 336,518 335,519 335,520 334,521 334,523 333,524 333,525 332,526 332,527 331,528 331,529 330,530 330,532 329,533 329,534 328,535 328,536 327,537 327,538 326,539 326,541 325,542 325,543 324,544 324,545 323,546 323,547 322,548 322,549 321,550 321,552 320,553 320,554 319,555 319,557 318,558 318,559 317,560 317,562 316,563 316,567 315,568 315,570 316,571 319,571 320,570 321,570 322,569 323,569 324,568 325,568 326,567 327,567 329,565 330,565 331,564 332,564 333,563 334,563 336,561 337,561 338,560 339,560 340,559 341,559 343,557 344,557 345,556 346,556 347,555 348,555 350,553 351,553 352,552 353,552 354,551 355,551 357,549 358,549 359,548 360,548 361,547 362,547 364,545 365,545 366,544 367,544 369,542 370,542 371,541 372,541 373,540 374,540 376,538 377,538 379,536 380,536 382,534 383,534 384,533 385,533 387,531 388,531 390,529 391,529 395,525 395,524 396,523 396,522 397,521 397,520 398,519 398,518 399,517 399,516 400,515 400,513 401,512 401,511 402,510 402,509 403,508 403,507 404,506 404,505 405,504 405,503 406,502 406,500 408,498 408,496 410,494 410,492 411,491 411,490 412,489 412,488 413,487 413,486 414,485 414,484 415,483 415,482 416,481 416,479 418,477 418,475 419,474 419,473 420,472 420,471 421,470 421,469 422,468 422,467 423,466 423,465 424,464 424,463 425,462 425,461 426,460 426,459 427,458 427,457 428,456 428,455 429,454 429,452 430,451 430,450 431,449 431,448 432,447 432,446 433,445 433,444 434,443 434,442 435,441 435,440 436,439 436,437 437,436 437,435 438,434 438,433 439,432 439,431 440,430 440,429 441,428 441,427 442,426 442,424 443,423 443,422 444,421 444,420 445,419 445,418 446,417 446,416 447,415 447,413 448,412 448,411 449,410 449,409 450,408 450,407 451,406 451,405 452,404 452,402 453,401 453,400 454,399 454,398 455,397 455,395 456,394 456,393 457,392 457,391 458,390 458,389 459,388 459,386 460,385 460,384 461,383 461,382 462,381 462,380 463,379 463,377 464,376 464,375 465,374 465,373 466,372 466,371 467,370 467,369 468,368 468,367 469,366 469,364 470,363 470,362 471,361 471,360 472,359 472,358 473,357 473,355 474,354 474,353 475,352 475,351 476,350 476,349 477,348 477,347 478,346 478,344 479,343 479,342 480,341 480,340 481,339 481,337 482,336 482,335 483,334 483,333 484,332 484,331 485,330 485,329 486,328 486,327 487,326 487,324 488,323 488,321 489,320 489,319 490,318 490,317 491,316 491,314 492,313 492,312 493,311 495,313 495,314 496,315 496,317 497,318 497,320 498,321 498,322 499,323 499,325 500,326 500,327 501,328 501,330 502,331 502,332 503,333 503,334 504,335 504,337 505,338 505,340 506,341 506,342 507,343 507,345 508,346 508,347 509,348 509,349 510,350 510,352 511,353 511,354 512,355 512,357 513,358 513,359 514,360 514,361 515,362 515,364 516,365 516,366 517,367 517,369 518,370 518,371 519,372 519,373 520,374 520,376 521,377 521,379 522,380 522,381 523,382 523,383 524,384 524,386 525,387 525,388 526,389 526,391 527,392 527,393 528,394 528,396 529,397 529,398 530,399 530,401 531,402 531,403 532,404 532,406 533,407 533,408 534,409 534,411 535,412 535,413 536,414 536,415 537,416 537,418 538,419 538,420 539,421 539,423 540,424 540,425 541,426 541,428 542,429 542,430 543,431 543,433 544,434 544,435 545,436 545,437 546,438 546,440 547,441 547,442 548,443 548,445 549,446 549,447 550,448 550,450 551,451 551,452 552,453 552,454 553,455 553,457 554,458 554,459 552,461 551,461 550,462 549,462 548,463 547,463 545,465 544,465 543,466 542,466 541,467 540,467 539,468 538,468 537,469 536,469 534,471 533,471 532,472 531,472 530,473 529,473 528,474 527,474 526,475 525,475 524,476 523,476 522,477 521,477 520,478 519,478 517,480 516,480 515,481 514,481 513,482 512,482 511,483 510,483 509,484 508,484 506,486 504,486 502,488 501,488 500,489 499,489 498,490 497,490 496,491 495,491 493,493 492,493 491,494 490,494 489,495 488,495 487,496 486,496 485,497 484,497 483,498 482,498 480,500 479,500 478,501 477,501 476,502 475,502 474,503 473,503 472,504 471,504 470,505 469,505 467,507 466,507 465,508 464,508 463,509 462,509 461,510 460,510 459,511 458,511 457,512 456,512 455,513 454,513 452,515 451,515 450,516 449,516 448,517 447,517 446,518 445,518 444,519 443,519 442,520 441,520 439,522 438,522 437,523 436,523 435,524 434,524 433,525 432,525 431,526 430,526 429,527 428,527 427,528 426,528 425,529 424,529 422,531 421,531 420,532 419,532 418,533 417,533 416,534 415,534 413,536 412,536 411,537 410,537 409,538 408,538 407,539 406,539 404,541 403,541 402,542 401,542 400,543 399,543 398,544 397,544 396,545 395,545 394,546 393,546 391,548 390,548 389,549 388,549 387,550 386,550 384,552 383,552 382,553 381,553 380,554 379,554 377,556 376,556 375,557 374,557 373,558 372,558 371,559 370,559 369,560 368,560 367,561 366,561 364,563 363,563 362,564 361,564 360,565 359,565 358,566 357,566 356,567 355,567 353,569 352,569 351,570 350,570 349,571 348,571 346,573 345,573 344,574 343,574 342,575 341,575 340,576 339,576 338,577 337,577 335,579 334,579 333,580 332,580 330,582 329,582 328,583 327,583 326,584 325,584 324,585 323,585 322,586 321,586 319,588 318,588 317,589 316,589 315,590 314,590 312,592 311,592 310,593 309,593 307,595 306,595 305,596 304,596 303,597 302,597 301,598 300,598 298,600 297,600 296,601 295,601 294,602 293,602 291,604 290,604 289,605 288,605 284,609 284,610 283,611 283,612 282,613 282,614 281,615 281,616 280,617 280,619 279,620 279,622 278,623 278,624 277,625 277,627 276,628 276,629 275,630 275,631 274,632 274,634 273,635 273,637 272,638 272,639 271,640 271,642 270,643 270,644 269,645 269,647 268,648 268,649 267,650 267,652 266,653 266,654 265,655 265,657 264,658 264,659 263,660 263,662 262,663 262,665 261,666 261,667 260,668 260,670 259,671 259,672 258,673 258,675 257,676 257,677 256,678 256,680 255,681 255,683 254,684 254,685 253,686 253,687 252,688 252,690 251,691 251,692 250,693 250,695 249,696 249,697 248,698 248,700 247,701 247,703 246,704 246,705 245,706 245,708 244,709 244,710 243,711 243,712 242,713 242,715 241,716 241,717 240,718 240,720 239,721 239,722 238,723 238,725 237,726 237,727 236,728 236,730 235,731 235,732 234,733 234,734 232,736 232,737 230,739 230,740 210,760 209,760 198,771 197,771 192,776 194,778 195,778 196,779 200,779 201,780 214,780 215,781 356,781 357,780 362,780 363,779 366,779 367,778 368,778 370,776 370,773 350,753 350,752 347,749 347,748 345,746 345,745 344,744 344,743 343,742 343,740 342,739 342,736 341,735 341,725 342,724 342,720 343,719 343,716 344,715 344,713 345,712 345,711 346,710 346,708 347,707 347,705 348,704 348,702 349,701 349,699 350,698 350,697 351,696 351,694 352,693 352,691 353,690 353,689 354,688 354,686 355,685 355,683 356,682 356,681 357,680 357,678 358,677 358,676 359,675 359,673 360,672 360,670 361,669 361,667 362,666 362,665 363,664 363,662 364,661 364,659 365,658 365,657 366,656 366,654 367,653 367,651 368,650 368,649 369,648 369,646 370,645 370,644 371,643 371,641 372,640 372,639 375,636 376,636 377,635 378,635 379,634 380,634 381,633 382,633 383,632 384,632 386,630 387,630 388,629 389,629 390,628 391,628 393,626 394,626 395,625 396,625 397,624 398,624 399,623 400,623 402,621 403,621 404,620 405,620 406,619 407,619 408,618 409,618 411,616 412,616 413,615 414,615 415,614 416,614 417,613 418,613 420,611 421,611 422,610 423,610 424,609 425,609 427,607 429,607 431,605 432,605 433,604 434,604 435,603 436,603 438,601 439,601 440,600 441,600 442,599 443,599 444,598 445,598 447,596 448,596 449,595 450,595 451,594 452,594 453,593 454,593 455,592 456,592 458,590 459,590 460,589 461,589 463,587 464,587 465,586 466,586 467,585 468,585 469,584 470,584 472,582 473,582 474,581 475,581 476,580 477,580 478,579 479,579 481,577 482,577 483,576 484,576 485,575 486,575 488,573 489,573 490,572 491,572 492,571 493,571 494,570 495,570 497,568 498,568 499,567 500,567 501,566 502,566 503,565 504,565 505,564 506,564 507,563 508,563 510,561 511,561 512,560 513,560 514,559 515,559 517,557 518,557 519,556 520,556 521,555 522,555 523,554 524,554 526,552 527,552 528,551 529,551 531,549 532,549 533,548 534,548 535,547 536,547 537,546 538,546 540,544 541,544 542,543 543,543 544,542 545,542 546,541 547,541 549,539 550,539 551,538 552,538 553,537 554,537 555,536 556,536 558,534 559,534 560,533 561,533 562,532 563,532 565,530 566,530 567,529 568,529 569,528 570,528 571,527 572,527 574,525 575,525 576,524 577,524 579,522 580,522 581,521 582,521 583,520 584,520 585,521 585,525 586,526 586,528 587,529 587,530 588,531 588,533 589,534 589,535 590,536 590,538 591,539 591,540 592,541 592,543 593,544 593,545 594,546 594,547 595,548 595,550 596,551 596,552 597,553 597,554 598,555 598,557 599,558 599,559 600,560 600,561 601,562 601,564 602,565 602,566 603,567 603,569 604,570 604,571 605,572 605,574 606,575 606,576 607,577 607,578 608,579 608,581 609,582 609,583 610,584 610,585 611,586 611,588 612,589 612,590 613,591 613,593 614,594 614,595 615,596 615,597 616,598 616,599 617,600 617,602 618,603 618,604 619,605 619,607 620,608 620,609 621,610 621,611 622,612 622,613 623,614 623,616 624,617 624,618 625,619 625,620 626,621 626,623 627,624 627,625 628,626 628,627 629,628 629,630 630,631 630,632 631,633 631,634 632,635 632,637 633,638 633,639 634,640 634,642 635,643 635,644 636,645 636,646 637,647 637,649 638,650 638,651 639,652 639,654 640,655 640,656 641,657 641,658 642,659 642,661 643,662 643,663 644,664 644,665 645,666 645,668 646,669 646,670 647,671 647,673 648,674 648,675 649,676 649,677 650,678 650,680 651,681 651,682 652,683 652,684 653,685 653,687 654,688 654,689 655,690 655,692 656,693 656,694 657,695 657,696 658,697 658,698 659,699 659,700 660,701 660,703 661,704 661,706 662,707 662,708 663,709 663,710 664,711 664,713 665,714 665,715 666,716 666,718 667,719 667,722 668,723 668,727 669,728 669,732 668,733 668,736 667,737 667,739 666,740 666,741 665,742 665,743 663,745 663,746 661,748 661,749 639,771 638,771 635,774 635,777 636,778 637,778 638,779 641,779 642,780 649,780 650,781 804,781 805,780 809,780 810,779 813,779 814,778 816,778 818,776 819,776 819,774 806,761 806,760 805,760 800,755 800,754 794,748 794,747 787,740 787,739 782,734 782,733 779,730 779,729 776,726 776,725 774,723 774,722 773,721 773,720 772,719 772,718 771,717 771,716 770,715 770,713 769,712 769,711 768,710 768,709 767,708 767,706 766,705 766,704 765,703 765,702 764,701 764,699 763,698 763,697 762,696 762,695 761,694 761,692 760,691 760,690 759,689 759,688 758,687 758,685 757,684 757,683 756,682 756,680 755,679 755,678 754,677 754,676 753,675 753,673 752,672 752,670 751,669 751,668 750,667 750,666 749,665 749,663 748,662 748,661 747,660 747,659 746,658 746,656 745,655 745,653 744,652 744,651 743,650 743,648 742,647 742,646 741,645 741,644 740,643 740,641 739,640 739,639 738,638 738,637 737,636 737,634 736,633 736,631 735,630 735,629 734,628 734,627 733,626 733,625 732,624 732,622 731,621 731,620 730,619 730,617 729,616 729,615 728,614 728,613 727,612 727,610 726,609 726,608 725,607 725,606 724,605 724,603 723,602 723,601 722,600 722,599 721,598 721,597 720,596 720,594 719,593 719,592 718,591 718,590 717,589 717,587 716,586 716,585 715,584 715,582 714,581 714,580 713,579 713,578 712,577 712,575 711,574 711,573 710,572 710,570 709,569 709,568 708,567 708,566 707,565 707,563 706,562 706,561 705,560 705,559 704,558 704,556 703,555 703,553 702,552 702,551 701,550 701,549 700,548 700,546 699,545 699,544 698,543 698,542 697,541 697,539 696,538 696,537 695,536 695,535 694,534 694,532 693,531 693,530 692,529 692,528 691,527 691,526 690,525 690,523 689,522 689,521 688,520 688,519 687,518 687,516 686,515 686,514 685,513 685,512 684,511 684,510 683,509 683,508 682,507 682,505 681,504 681,503 680,502 680,501 679,500 679,498 678,497 678,496 677,495 677,494 676,493 676,491 675,490 675,489 674,488 674,487 673,486 673,485 672,484 672,483 671,482 671,481 670,480 670,478 669,477 669,476 668,475 668,474 667,473 667,472 669,470 670,470 673,467 674,467 677,464 678,464 681,461 682,461 691,452 692,452 701,443 702,443 717,428 718,428 735,411 736,411 736,410 737,409 738,409 740,407 740,406 746,400 747,400 747,399 750,396 750,395 749,394 748,394 747,395 746,395 745,396 743,396 742,397 741,397 740,398 739,398 738,399 737,399 736,400 735,400 734,401 733,401 732,402 730,402 729,403 728,403 727,404 726,404 725,405 723,405 722,406 721,406 720,407 719,407 718,408 717,408 716,409 715,409 714,410 713,410 712,411 711,411 710,412 709,412 708,413 707,413 706,414 705,414 704,415 703,415 702,416 701,416 700,417 699,417 698,418 696,418 694,420 693,420 692,421 691,421 690,422 689,422 688,423 686,423 684,425 682,425 680,427 678,427 676,429 674,429 673,430 672,430 671,431 670,431 669,432 668,432 667,433 666,433 665,434 664,434 663,435 662,435 661,436 660,436 659,437 655,437 652,434 652,433 651,432 651,431 650,430 650,429 649,428 649,427 648,426 648,424 647,423 647,422 646,421 646,420 645,419 645,418 644,417 644,416 643,415 643,414 642,413 642,412 641,411 641,409 640,408 640,407 639,406 639,405 638,404 638,402 637,401 637,400 636,399 636,398 635,397 635,396 634,395 634,394 633,393 633,392 632,391 632,390 631,389 631,387 630,386 630,385 629,384 629,383 628,382 628,381 627,380 627,379 626,378 626,377 625,376 625,375 624,374 624,373 623,372 623,371 622,370 622,368 621,367 621,366 620,365 620,364 619,363 619,362 618,361 618,360 617,359 617,358 616,357 616,356 615,355 615,353 614,352 614,351 613,350 613,349 612,348 612,347 611,346 611,345 610,344 610,343 609,342 609,341 608,340 608,339 607,338 607,336 606,335 606,334 605,333 605,332 604,331 604,330 603,329 603,328 602,327 602,326 601,325 601,323 600,322 600,321 599,320 599,319 598,318 598,317 597,316 597,315 596,314 596,313 595,312 595,310 594,309 594,308 593,307 593,306 592,305 592,304 591,303 591,301 590,300 590,299 589,298 589,297 588,296 588,295 587,294 587,293 586,292 586,291 585,290 585,289 584,288 584,286 583,285 583,284 582,283 582,281 581,280 581,279 580,278 580,277 579,276 579,275 578,274 578,273 577,272 577,270 576,269 576,268 575,267 575,266 574,265 574,264 573,263 573,261 572,260 572,259 571,258 571,257 570,256 570,255 569,254 569,253 568,252 568,251 567,250 567,248 566,247 566,246 565,245 565,244 564,243 564,242 563,241 563,239 562,238 562,237 561,236 561,235 560,234 560,233 559,232 559,230 558,229 558,228 557,227 557,226 556,225 556,224 555,223 555,221 554,220 554,219 553,218 553,217 552,216 552,215 551,214 551,213 550,212 550,211 549,210 549,208 548,207 548,206 547,205 547,204 546,203 546,202 545,201 545,200 544,199 544,197 543,196 543,195 542,194 542,193 541,192 541,190 540,189 540,188 539,187 539,186 538,185 538,184 537,183 537,181 536,180 536,179 535,178 535,177 534,176 534,175 533,174 533,173 532,172 532,170 531,169 531,168 530,167 530,166 529,165 529,164 528,163 528,162 527,161 527,160 526,159 526,157 525,156 525,155 524,154 524,153 523,152 523,151 522,150 522,149 521,148 521,147 520,146 520,145 519,144 519,142 518,141 518,140 517,139 517,138 516,137 516,136 515,135 515,134 514,133 514,132 512,130" stroke="black" stroke-width="1" /><polygon fill="gold" points="0,0 0,1023 1023,1023 1,1023 0,1022 0,1 1,0 1023,0" stroke="black" stroke-width="1" /></svg>